# xmcd CD database file
# Copyright (C) 1993-2000  Ti Kan
#
# Track frame offsets:
#	182
#	15745
#	30382
#	44850
#	60385
#	74635
#	88962
#	103525
#	119275
#	133582
#	149137
#	162690
#	177287
#	191457
#	204362
#	217930
#	232377
#	245925
#	259345
#	273915
#	289080
#	304535
#
# Disc length: 4271 seconds
#
# Revision: 1
# Processed by: cddbd v1.4PL0 Copyright (c) Steve Scherf et al.
# Submitted via: xmcd 2.6 PL0
#
DISCID=5e10ad16
DTITLE=Bessie Smith - An Introduction to Bessie Smith
DYEAR=1900
DGENRE=
TTITLE0=Down-Hearted Blues
TTITLE1=Jail House Blues
TTITLE2=My Sweetie Went Away
TTITLE3=Any Woman's Blues
TTITLE4=Weeping Willow Blues
TTITLE5=The St. Louis Blues
TTITLE6=Cold in Hand Blues
TTITLE7=You've Been a Good Old Wagon
TTITLE8=Cake Walkin' Babies (from Home)
TTITLE9=Careless Love Blues
TTITLE10=Baby Doll
TTITLE11=Hard Time Blues
TTITLE12=Young Woman's Blues
TTITLE13=Preachin' the Blues
TTITLE14=Alexander's Ragtime Band
TTITLE15=Trombone Cholly
TTITLE16=Dyin' by the Hour
TTITLE17=Nobody Knows You When You're Down and Out
TTITLE18=He's Got Me Goin'
TTITLE19=Shipwreck Blues
TTITLE20=Do Your Duty
TTITLE21=Gimme a Pigfoot
EXTD=
EXTT0=
EXTT1=
EXTT2=
EXTT3=
EXTT4=
EXTT5=
EXTT6=
EXTT7=
EXTT8=
EXTT9=
EXTT10=
EXTT11=
EXTT12=
EXTT13=
EXTT14=
EXTT15=
EXTT16=
EXTT17=
EXTT18=
EXTT19=
EXTT20=
EXTT21=
PLAYORDER=
